{
	"patcher" : 	{
		"fileversion" : 1,
		"appversion" : 		{
			"major" : 8,
			"minor" : 0,
			"revision" : 3,
			"architecture" : "x64",
			"modernui" : 1
		}
,
		"classnamespace" : "box",
		"rect" : [ 44.0, 79.0, 727.0, 787.0 ],
		"bglocked" : 0,
		"openinpresentation" : 0,
		"default_fontsize" : 12.0,
		"default_fontface" : 0,
		"default_fontname" : "Arial",
		"gridonopen" : 1,
		"gridsize" : [ 15.0, 15.0 ],
		"gridsnaponopen" : 1,
		"objectsnaponopen" : 1,
		"statusbarvisible" : 2,
		"toolbarvisible" : 1,
		"lefttoolbarpinned" : 0,
		"toptoolbarpinned" : 0,
		"righttoolbarpinned" : 0,
		"bottomtoolbarpinned" : 0,
		"toolbars_unpinned_last_save" : 0,
		"tallnewobj" : 0,
		"boxanimatetime" : 200,
		"enablehscroll" : 1,
		"enablevscroll" : 1,
		"devicewidth" : 0.0,
		"description" : "",
		"digest" : "",
		"tags" : "",
		"style" : "",
		"subpatcher_template" : "",
		"boxes" : [ 			{
				"box" : 				{
					"comment" : "Commands In",
					"id" : "obj-4",
					"index" : 2,
					"maxclass" : "inlet",
					"numinlets" : 0,
					"numoutlets" : 1,
					"outlettype" : [ "" ],
					"patching_rect" : [ 865.4761962890625, 169.10205078125, 252.448974609375, 252.448974609375 ]
				}

			}
, 			{
				"box" : 				{
					"id" : "obj-7",
					"maxclass" : "message",
					"numinlets" : 2,
					"numoutlets" : 1,
					"outlettype" : [ "" ],
					"patching_rect" : [ -111.0, 519.0, 174.0, 22.0 ],
					"text" : "iNum 0"
				}

			}
, 			{
				"box" : 				{
					"id" : "obj-10",
					"linecount" : 3,
					"maxclass" : "message",
					"numinlets" : 2,
					"numoutlets" : 1,
					"outlettype" : [ "" ],
					"patching_rect" : [ 463.0, 483.0, 65.0, 49.0 ],
					"text" : "vScore-commands vCycle 0"
				}

			}
, 			{
				"box" : 				{
					"id" : "obj-5",
					"maxclass" : "message",
					"numinlets" : 2,
					"numoutlets" : 1,
					"outlettype" : [ "" ],
					"patching_rect" : [ 886.445068359375, 514.66668701171875, 48.0, 22.0 ],
					"text" : "iNum 0"
				}

			}
, 			{
				"box" : 				{
					"id" : "obj-17",
					"linecount" : 4,
					"maxclass" : "message",
					"numinlets" : 2,
					"numoutlets" : 1,
					"outlettype" : [ "" ],
					"patching_rect" : [ 247.111785888671875, 1002.04931640625, 50.0, 62.0 ],
					"text" : "newScore 25 320 5500"
				}

			}
, 			{
				"box" : 				{
					"id" : "obj-16",
					"maxclass" : "message",
					"numinlets" : 2,
					"numoutlets" : 1,
					"outlettype" : [ "" ],
					"patching_rect" : [ 96.392158508300781, 950.90203857421875, 133.0, 22.0 ],
					"text" : "newScore 25 320 5500"
				}

			}
, 			{
				"box" : 				{
					"comment" : "Pitch-list In",
					"id" : "obj-2",
					"index" : 3,
					"maxclass" : "inlet",
					"numinlets" : 0,
					"numoutlets" : 1,
					"outlettype" : [ "" ],
					"patching_rect" : [ 1468.2265625, 220.923614501953125, 252.448974609375, 252.448974609375 ]
				}

			}
, 			{
				"box" : 				{
					"bgmode" : 0,
					"border" : 0,
					"clickthrough" : 0,
					"enablehscroll" : 0,
					"enablevscroll" : 0,
					"id" : "obj-23",
					"lockeddragscroll" : 0,
					"maxclass" : "bpatcher",
					"name" : "spectrascore.channel.maxpat",
					"numinlets" : 1,
					"numoutlets" : 1,
					"offset" : [ 0.0, 0.0 ],
					"outlettype" : [ "" ],
					"patching_rect" : [ 1524.9931640625, 1301.4593505859375, 131.4791259765625, 133.5867919921875 ],
					"presentation" : 1,
					"presentation_rect" : [ 58.0, 435.665496826171875, 131.4791259765625, 141.5867919921875 ],
					"varname" : "spectrascore.channel[11]",
					"viewvisibility" : 1
				}

			}
, 			{
				"box" : 				{
					"bgmode" : 0,
					"border" : 0,
					"clickthrough" : 0,
					"enablehscroll" : 0,
					"enablevscroll" : 0,
					"id" : "obj-11",
					"lockeddragscroll" : 0,
					"maxclass" : "bpatcher",
					"name" : "spectrascore.channel.maxpat",
					"numinlets" : 1,
					"numoutlets" : 1,
					"offset" : [ 0.0, 0.0 ],
					"outlettype" : [ "" ],
					"patching_rect" : [ 1315.1837158203125, 1202.860595703125, 131.4791259765625, 133.5867919921875 ],
					"presentation" : 1,
					"presentation_rect" : [ 358.0, 282.72418212890625, 131.4791259765625, 141.5867919921875 ],
					"varname" : "spectrascore.channel[3]",
					"viewvisibility" : 1
				}

			}
, 			{
				"box" : 				{
					"bgmode" : 0,
					"border" : 0,
					"clickthrough" : 0,
					"enablehscroll" : 0,
					"enablevscroll" : 0,
					"id" : "obj-12",
					"lockeddragscroll" : 0,
					"maxclass" : "bpatcher",
					"name" : "spectrascore.channel.maxpat",
					"numinlets" : 1,
					"numoutlets" : 1,
					"offset" : [ 0.0, 0.0 ],
					"outlettype" : [ "" ],
					"patching_rect" : [ 1055.5782470703125, 1079.962646484375, 131.4791259765625, 133.5867919921875 ],
					"presentation" : 1,
					"presentation_rect" : [ 206.0, 282.72418212890625, 131.4791259765625, 141.5867919921875 ],
					"varname" : "spectrascore.channel[4]",
					"viewvisibility" : 1
				}

			}
, 			{
				"box" : 				{
					"bgmode" : 0,
					"border" : 0,
					"clickthrough" : 0,
					"enablehscroll" : 0,
					"enablevscroll" : 0,
					"id" : "obj-13",
					"lockeddragscroll" : 0,
					"maxclass" : "bpatcher",
					"name" : "spectrascore.channel.maxpat",
					"numinlets" : 1,
					"numoutlets" : 1,
					"offset" : [ 0.0, 0.0 ],
					"outlettype" : [ "" ],
					"patching_rect" : [ 805.17877197265625, 994.04931640625, 131.4791259765625, 133.5867919921875 ],
					"presentation" : 1,
					"presentation_rect" : [ 54.0, 282.72418212890625, 131.4791259765625, 141.5867919921875 ],
					"varname" : "spectrascore.channel[5]",
					"viewvisibility" : 1
				}

			}
, 			{
				"box" : 				{
					"bgmode" : 0,
					"border" : 0,
					"clickthrough" : 0,
					"enablehscroll" : 0,
					"enablevscroll" : 0,
					"id" : "obj-9",
					"lockeddragscroll" : 0,
					"maxclass" : "bpatcher",
					"name" : "spectrascore.channel.maxpat",
					"numinlets" : 1,
					"numoutlets" : 1,
					"offset" : [ 0.0, 0.0 ],
					"outlettype" : [ "" ],
					"patching_rect" : [ 552.53057861328125, 878.72442626953125, 131.4791259765625, 133.5867919921875 ],
					"presentation" : 1,
					"presentation_rect" : [ 358.0, 129.782867431640625, 131.4791259765625, 141.5867919921875 ],
					"varname" : "spectrascore.channel[2]",
					"viewvisibility" : 1
				}

			}
, 			{
				"box" : 				{
					"bgmode" : 0,
					"border" : 0,
					"clickthrough" : 0,
					"enablehscroll" : 0,
					"enablevscroll" : 0,
					"id" : "obj-8",
					"lockeddragscroll" : 0,
					"maxclass" : "bpatcher",
					"name" : "spectrascore.channel.maxpat",
					"numinlets" : 1,
					"numoutlets" : 1,
					"offset" : [ 0.0, 0.0 ],
					"outlettype" : [ "" ],
					"patching_rect" : [ 326.598663330078125, 819.8060302734375, 131.4791259765625, 133.5867919921875 ],
					"presentation" : 1,
					"presentation_rect" : [ 206.0, 129.782867431640625, 131.4791259765625, 141.5867919921875 ],
					"varname" : "spectrascore.channel[1]",
					"viewvisibility" : 1
				}

			}
, 			{
				"box" : 				{
					"hidden" : 1,
					"id" : "obj-15",
					"maxclass" : "newobj",
					"numinlets" : 3,
					"numoutlets" : 8,
					"outlettype" : [ "", "", "", "", "", "", "", "" ],
					"patching_rect" : [ 560.25848388671875, 506.006805419921875, 113.0, 22.0 ],
					"text" : "spectrascore.config"
				}

			}
, 			{
				"box" : 				{
					"bgmode" : 0,
					"border" : 0,
					"clickthrough" : 0,
					"enablehscroll" : 0,
					"enablevscroll" : 0,
					"id" : "obj-225",
					"lockeddragscroll" : 0,
					"maxclass" : "bpatcher",
					"name" : "spectrascore.channel.maxpat",
					"numinlets" : 1,
					"numoutlets" : 1,
					"offset" : [ 0.0, 0.0 ],
					"outlettype" : [ "" ],
					"patching_rect" : [ 129.632659912109375, 764.09173583984375, 131.4791259765625, 133.5867919921875 ],
					"presentation" : 1,
					"presentation_rect" : [ 54.0, 129.782867431640625, 131.4791259765625, 141.5867919921875 ],
					"varname" : "spectrascore.channel",
					"viewvisibility" : 1
				}

			}
, 			{
				"box" : 				{
					"comment" : "Commands In",
					"id" : "obj-1",
					"index" : 1,
					"maxclass" : "inlet",
					"numinlets" : 0,
					"numoutlets" : 1,
					"outlettype" : [ "" ],
					"patching_rect" : [ 509.4761962890625, 201.10205078125, 252.448974609375, 252.448974609375 ]
				}

			}
, 			{
				"box" : 				{
					"comment" : "",
					"id" : "obj-3",
					"index" : 1,
					"maxclass" : "outlet",
					"numinlets" : 1,
					"numoutlets" : 0,
					"patching_rect" : [ 332.3265380859375, 1411.8037109375, 30.0, 30.0 ]
				}

			}
 ],
		"lines" : [ 			{
				"patchline" : 				{
					"destination" : [ "obj-10", 1 ],
					"order" : 1,
					"source" : [ "obj-1", 0 ]
				}

			}
, 			{
				"patchline" : 				{
					"destination" : [ "obj-15", 0 ],
					"order" : 0,
					"source" : [ "obj-1", 0 ]
				}

			}
, 			{
				"patchline" : 				{
					"destination" : [ "obj-3", 0 ],
					"source" : [ "obj-11", 0 ]
				}

			}
, 			{
				"patchline" : 				{
					"destination" : [ "obj-3", 0 ],
					"source" : [ "obj-12", 0 ]
				}

			}
, 			{
				"patchline" : 				{
					"destination" : [ "obj-3", 0 ],
					"source" : [ "obj-13", 0 ]
				}

			}
, 			{
				"patchline" : 				{
					"destination" : [ "obj-11", 0 ],
					"hidden" : 1,
					"source" : [ "obj-15", 5 ]
				}

			}
, 			{
				"patchline" : 				{
					"destination" : [ "obj-12", 0 ],
					"hidden" : 1,
					"source" : [ "obj-15", 4 ]
				}

			}
, 			{
				"patchline" : 				{
					"destination" : [ "obj-13", 0 ],
					"hidden" : 1,
					"source" : [ "obj-15", 3 ]
				}

			}
, 			{
				"patchline" : 				{
					"destination" : [ "obj-225", 0 ],
					"hidden" : 1,
					"order" : 2,
					"source" : [ "obj-15", 0 ]
				}

			}
, 			{
				"patchline" : 				{
					"destination" : [ "obj-23", 0 ],
					"source" : [ "obj-15", 6 ]
				}

			}
, 			{
				"patchline" : 				{
					"destination" : [ "obj-5", 1 ],
					"order" : 0,
					"source" : [ "obj-15", 0 ]
				}

			}
, 			{
				"patchline" : 				{
					"destination" : [ "obj-7", 1 ],
					"order" : 1,
					"source" : [ "obj-15", 0 ]
				}

			}
, 			{
				"patchline" : 				{
					"destination" : [ "obj-8", 0 ],
					"hidden" : 1,
					"source" : [ "obj-15", 1 ]
				}

			}
, 			{
				"patchline" : 				{
					"destination" : [ "obj-9", 0 ],
					"hidden" : 1,
					"source" : [ "obj-15", 2 ]
				}

			}
, 			{
				"patchline" : 				{
					"destination" : [ "obj-15", 1 ],
					"source" : [ "obj-2", 0 ]
				}

			}
, 			{
				"patchline" : 				{
					"destination" : [ "obj-16", 1 ],
					"order" : 1,
					"source" : [ "obj-225", 0 ]
				}

			}
, 			{
				"patchline" : 				{
					"destination" : [ "obj-3", 0 ],
					"order" : 0,
					"source" : [ "obj-225", 0 ]
				}

			}
, 			{
				"patchline" : 				{
					"destination" : [ "obj-3", 0 ],
					"source" : [ "obj-23", 0 ]
				}

			}
, 			{
				"patchline" : 				{
					"destination" : [ "obj-15", 2 ],
					"source" : [ "obj-4", 0 ]
				}

			}
, 			{
				"patchline" : 				{
					"destination" : [ "obj-225", 0 ],
					"source" : [ "obj-5", 0 ]
				}

			}
, 			{
				"patchline" : 				{
					"destination" : [ "obj-17", 1 ],
					"order" : 1,
					"source" : [ "obj-8", 0 ]
				}

			}
, 			{
				"patchline" : 				{
					"destination" : [ "obj-3", 0 ],
					"order" : 0,
					"source" : [ "obj-8", 0 ]
				}

			}
, 			{
				"patchline" : 				{
					"destination" : [ "obj-3", 0 ],
					"source" : [ "obj-9", 0 ]
				}

			}
 ],
		"styles" : [ 			{
				"name" : "comment_font_viewer",
				"default" : 				{
					"fontsize" : [ 12.0 ],
					"fontname" : [ "Gill Sans" ],
					"textcolor" : [ 1.0, 1.0, 1.0, 1.0 ]
				}
,
				"parentstyle" : "",
				"multi" : 0
			}
, 			{
				"name" : "comment_viewer_normal",
				"default" : 				{
					"fontsize" : [ 10.0 ],
					"fontname" : [ "Arial" ],
					"textcolor" : [ 1.0, 1.0, 1.0, 1.0 ]
				}
,
				"parentstyle" : "",
				"multi" : 0
			}
, 			{
				"name" : "number_white",
				"default" : 				{
					"selectioncolor" : [ 0.87, 0.82, 0.24, 1.0 ],
					"textcolor_inverse" : [ 1.0, 1.0, 1.0, 1.0 ],
					"fontsize" : [ 10.0 ],
					"bgcolor" : [ 1.0, 1.0, 1.0, 0.0 ],
					"fontname" : [ "Gill Sans" ],
					"accentcolor" : [ 0.75, 0.75, 0.75, 1.0 ],
					"fontface" : [ 1 ]
				}
,
				"parentstyle" : "",
				"multi" : 0
			}
, 			{
				"name" : "panel_black_brown",
				"default" : 				{
					"bgfillcolor" : 					{
						"type" : "gradient",
						"color1" : [ 0.0, 0.0, 0.0, 1.0 ],
						"color2" : [ 0.880169, 0.755396, 0.471904, 1.0 ],
						"color" : [ 0.290196, 0.309804, 0.301961, 1.0 ],
						"angle" : 270.0,
						"proportion" : 0.504831
					}

				}
,
				"parentstyle" : "",
				"multi" : 0
			}
, 			{
				"name" : "panel_blue_grad",
				"default" : 				{
					"bgfillcolor" : 					{
						"type" : "gradient",
						"color1" : [ 0.0, 0.078431, 0.321569, 1.0 ],
						"color2" : [ 0.086275, 0.309804, 0.52549, 1.0 ],
						"color" : [ 0.290196, 0.309804, 0.301961, 1.0 ],
						"angle" : -90.0,
						"proportion" : 0.39
					}

				}
,
				"parentstyle" : "",
				"multi" : 0
			}
, 			{
				"name" : "panel_green_yellow",
				"default" : 				{
					"bgfillcolor" : 					{
						"type" : "gradient",
						"color1" : [ 0.019608, 0.254902, 0.035294, 1.0 ],
						"color2" : [ 0.960784, 0.827451, 0.156863, 1.0 ],
						"color" : [ 0.290196, 0.309804, 0.301961, 1.0 ],
						"angle" : -90.0,
						"proportion" : 0.39
					}

				}
,
				"parentstyle" : "",
				"multi" : 0
			}
, 			{
				"name" : "umenu001_white",
				"default" : 				{
					"textcolor_inverse" : [ 1.0, 1.0, 1.0, 1.0 ],
					"fontsize" : [ 10.0 ],
					"bgfillcolor" : 					{
						"type" : "color",
						"color1" : [ 0.376471, 0.384314, 0.4, 1.0 ],
						"color2" : [ 0.290196, 0.309804, 0.301961, 1.0 ],
						"color" : [ 0.952941, 0.564706, 0.098039, 1.0 ],
						"angle" : 270.0,
						"proportion" : 0.39,
						"autogradient" : 0
					}
,
					"fontname" : [ "Gill Sans" ],
					"color" : [ 1.0, 1.0, 1.0, 1.0 ]
				}
,
				"parentstyle" : "",
				"multi" : 0
			}
 ]
	}

}
